<?xml version="1.0" standalone="no"?>
<!DOCTYPE svg PUBLIC "-//W3C//DTD SVG 20010904//EN"
 "http://www.w3.org/TR/2001/REC-SVG-20010904/DTD/svg10.dtd">
<svg version="1.0" xmlns="http://www.w3.org/2000/svg"
 width="16.000000pt" height="16.000000pt" viewBox="0 0 16.000000 16.000000"
 preserveAspectRatio="xMidYMid meet">

<g transform="translate(0.000000,16.000000) scale(0.100000,-0.100000)"
fill="#000000" stroke="none">
<path d="M4 137 c-3 -8 -4 -34 -2 -58 3 -40 6 -44 31 -47 15 -2 25 -8 22 -13
-4 -5 8 -9 25 -9 17 0 29 4 25 9 -3 5 7 11 22 13 27 3 28 5 28 58 l0 55 -73 3
c-55 2 -74 0 -78 -11z m146 -37 l0 -40 -70 0 -70 0 0 40 0 40 70 0 70 0 0 -40z"/>
</g>
</svg>
